<svg width="21" height="20" viewBox="0 0 21 20" fill="none" xmlns="http://www.w3.org/2000/svg">
<path d="M10.0013 0C15.2294 0 19.4675 4.11597 19.4675 9.19327C19.4675 11.5055 18.5886 13.6183 17.1374 15.2339L20.2225 18.23C20.6394 18.6349 20.6394 19.2914 20.2225 19.6963C19.8055 20.1012 19.1295 20.1012 18.7126 19.6963L15.5605 16.6351C13.9995 17.7368 12.0786 18.3865 10.0013 18.3865C4.77331 18.3865 0.535156 14.2706 0.535156 9.19327C0.535156 4.11597 4.77331 0 10.0013 0ZM10.0013 16.2806C14.1282 16.2806 17.3639 13.0477 17.3639 9.19327C17.3639 5.33887 14.1282 2.10594 10.0013 2.10594C5.87443 2.10594 2.63876 5.33887 2.63876 9.19327C2.63876 13.0477 5.87443 16.2806 10.0013 16.2806Z" fill="#fff"/>
</svg>
