<svg width="42" height="24" viewBox="0 0 42 24" fill="none" xmlns="http://www.w3.org/2000/svg">
<path d="M25.2137 10.1524C25.2584 10.1044 25.3126 10.066 25.3728 10.0398C25.433 10.0135 25.498 10 25.5637 10C25.6294 10 25.6943 10.0135 25.7546 10.0398C25.8148 10.066 25.8689 10.1044 25.9137 10.1524L28.5517 12.9434L31.1857 10.1524C31.2304 10.1044 31.2846 10.066 31.3448 10.0398C31.405 10.0135 31.47 10 31.5357 10C31.6014 10 31.6663 10.0135 31.7266 10.0398C31.7868 10.066 31.8409 10.1044 31.8857 10.1524C31.9794 10.254 32.0315 10.3872 32.0315 10.5254C32.0315 10.6637 31.9794 10.7969 31.8857 10.8984L29.2557 13.6894C29.1661 13.7869 29.0573 13.8647 28.9361 13.918C28.815 13.9712 28.684 13.9987 28.5517 13.9987C28.4193 13.9987 28.2884 13.9712 28.1672 13.918C28.046 13.8647 27.9372 13.7869 27.8477 13.6894L25.2137 10.8984C25.1199 10.7969 25.0679 10.6637 25.0679 10.5254C25.0679 10.3872 25.1199 10.254 25.2137 10.1524Z" fill="black"/>
<path d="M17.0356 21.5V19.5C17.0356 18.4391 16.6142 17.4217 15.8641 16.6716C15.1139 15.9214 14.0965 15.5 13.0356 15.5H5.03564C3.97478 15.5 2.95736 15.9214 2.20722 16.6716C1.45707 17.4217 1.03564 18.4391 1.03564 19.5V21.5" stroke="black" stroke-width="2" stroke-linecap="round" stroke-linejoin="round"/>
<path d="M13.0356 7C13.0356 7.79113 12.8011 8.56448 12.3615 9.22228C11.922 9.88008 11.2973 10.3928 10.5664 10.6955C9.83548 10.9983 9.03121 11.0775 8.25529 10.9231C7.47936 10.7688 6.76663 10.3878 6.20722 9.82843C5.64781 9.26902 5.26685 8.55629 5.11251 7.78036C4.95816 7.00444 5.03738 6.20017 5.34013 5.46927C5.64288 4.73836 6.15557 4.11365 6.81337 3.67412C7.47116 3.2346 8.24452 3 9.03565 3C10.0965 3 11.1139 3.42143 11.8641 4.17157C12.6142 4.92172 13.0356 5.93913 13.0356 7Z" stroke="black" stroke-width="2" stroke-linecap="round" stroke-linejoin="round"/>
</svg>
